<?xml version="1.0" encoding="utf-8" ?>
<svg xmlns="http://www.w3.org/2000/svg" xmlns:xlink="http://www.w3.org/1999/xlink" width="1024" height="1024">
	<path fill="#da005c" transform="scale(2 2)" d="M192.962 394.954C189.096 394.781 185.168 394.948 181.293 394.949L63.6623 394.962C59.3111 394.979 54.873 395.423 50.554 394.782C36.083 392.633 24.6432 379.39 23.0878 365.1C22.6289 360.885 23.1584 356.6 23.1775 352.363L23.165 89.9324C23.1651 83.8462 22.8022 77.4856 23.385 71.4316C24.8778 55.9266 36.8452 44.6347 52.2393 42.9954C52.2879 42.9939 52.3366 42.9912 52.3852 42.9908L446.861 42.9901C451.884 42.9906 457.194 42.6708 462.179 43.2164C477.356 44.8775 488.977 59.1725 489.108 74.1179L489.012 353.42C489.01 358.163 489.165 363.024 488.492 367.727C486.819 379.418 476.564 392.097 464.587 394.393C459.017 395.46 452.792 394.965 447.133 394.963L319.261 394.954C318.712 412.001 326.426 421.636 343.719 421.493C376.937 421.719 380.24 435.23 380.182 465.505L132.46 465.505C132.429 453.062 131.3 439.881 140.716 430.216C155.974 414.555 173.811 428.941 187.065 414.794C192.311 409.195 193.196 402.337 192.962 394.954ZM78.0588 86.5433L67.495 86.5433L67.495 350.926L434.937 350.926L444.718 350.926L444.718 86.5433L78.0588 86.5433ZM236.716 394.954C236.397 403.746 235.532 413.16 232.6 421.493C246.782 421.686 260.993 421.492 275.177 421.493L278.78 421.493C276.172 412.514 274.631 404.804 275.177 395.42C266.668 394.709 245.478 393.913 236.716 394.954Z"/>
	<path fill="#da005c" transform="scale(2 2)" d="M225.222 118.833C234.717 111.623 247.434 108.559 256.375 100.451C265.443 108.498 277.876 111.988 287.755 118.833C286.767 123.116 283.912 141.582 293.387 139.369C299.027 138.051 301.45 127.117 304.229 122.698L304.463 122.331C307.735 122.502 310.87 123.731 314.011 124.593C327.542 128.311 341.359 130.499 355.297 132.044C355.613 141.068 355.304 150.203 355.301 159.243L355.305 243.183C355.305 264.25 354.744 281.018 336.495 296.023C329.258 301.973 320.028 304.744 311.644 308.687C296.093 316.002 271.979 327.187 258.116 336.582L256.375 338.06C251.076 335.479 246.074 332.195 240.952 329.278C227.593 321.673 213.584 314.6 199.627 308.156C193.072 305.13 186.117 302.569 180.007 298.695C154.175 282.316 157.286 256.396 157.295 230.376L157.292 143.953C157.277 140.055 156.743 135.888 157.295 132.044C174.545 130.052 191.55 126.863 208.322 122.331C210.145 126.927 215.262 144.746 223.689 136.459C226.832 133.368 225.073 123.319 225.222 118.833ZM254.078 164.788C249.906 166.334 247.04 169.825 243.276 172.035C229.255 180.269 218.807 180.282 203.255 180.229L203.254 232.506C203.255 241.229 203.525 250.034 203.255 258.748C221.981 266.551 238.486 276.965 256.375 285.018L259.066 283.911C271.451 278.119 283.893 271.07 296.374 264.991C300.727 262.871 305.29 260.181 309.898 258.748C309.397 253.498 309.909 245.558 309.904 240.03L309.888 197.456C309.894 192.252 310.58 185.24 309.898 180.229C293.315 180.246 279.737 179.411 265.691 169.823C261.638 167.055 259.258 164.34 254.078 164.788Z"/>
	<path fill="#da005c" transform="scale(2 2)" d="M219.237 195.1C232.579 193.213 244.915 190.904 256.375 183.214C257.289 183.272 261.113 185.851 262.232 186.471C271.891 191.827 282.729 194.196 293.759 194.208L293.761 230.096C293.763 236.085 293.978 242.135 293.759 248.116C282.217 254.104 268.8 261.52 257.066 266.776C254.523 266.693 224.253 250.457 219.237 248.116L219.235 212.622C219.239 206.802 219.527 200.906 219.237 195.1Z"/>
</svg>
